<svg xmlns="http://www.w3.org/2000/svg" width="82" height="22" fill="none"><path fill="#27AE60" d="M5.51.182V22H.895V.182H5.51Zm22.044 0V22h-3.985L14.077 8.268h-.16V22H9.305V.182h4.048l9.417 13.721h.192V.182h4.592Z"/><path fill="#F2F2F2" d="M39.1 22h-7.735V.182h7.798c2.195 0 4.084.437 5.668 1.31 1.584.867 2.802 2.113 3.654 3.74.86 1.626 1.29 3.572 1.29 5.838 0 2.272-.43 4.226-1.29 5.859-.852 1.634-2.077 2.887-3.675 3.76C43.219 21.564 41.315 22 39.1 22Zm-3.122-3.952h2.93c1.363 0 2.51-.242 3.44-.725.938-.49 1.641-1.246 2.11-2.269.476-1.03.714-2.358.714-3.984 0-1.613-.238-2.93-.714-3.953-.469-1.023-1.168-1.775-2.099-2.258-.93-.483-2.077-.725-3.44-.725h-2.941v13.914Z"/><path fill="#F2994A" d="M57.804.182V22h-4.613V.182h4.613ZM65.36 22h-4.943L67.949.182h5.945L81.413 22h-4.942L71.006 5.168h-.17L65.36 22Zm-.309-8.576h11.676v3.6H65.051v-3.6Z"/></svg>